<?xml version="1.0" encoding="UTF-8"?>
<svg version="1.1" xmlns="http://www.w3.org/2000/svg" width="321" height="117">
<path d="M0 0 C105.93 0 211.86 0 321 0 C321 38.61 321 77.22 321 117 C215.07 117 109.14 117 0 117 C0 78.39 0 39.78 0 0 Z " fill="#FDFDFE" transform="translate(0,0)"/>
<path d="M0 0 C1.134375 0.020625 2.26875 0.04125 3.4375 0.0625 C4.0975 1.7125 4.7575 3.3625 5.4375 5.0625 C6.22125 4.423125 7.005 3.78375 7.8125 3.125 C13.41169 -1.27436357 19.54796979 -0.46983772 26.4375 0.0625 C32.55514504 1.715633 36.25797557 6.86643155 39.4375 12.0625 C41.6200979 18.61029371 41.739234 27.28576702 38.8125 33.625 C35.92062352 38.41402948 31.64645601 41.99343734 26.4375 44.0625 C13.50025814 45.4029853 13.50025814 45.4029853 8.625 42.125 C6.4375 40.0625 6.4375 40.0625 5.4375 39.0625 C5.41244385 39.75400146 5.3873877 40.44550293 5.36157227 41.15795898 C5.24597839 44.27217866 5.12308758 47.38606789 5 50.5 C4.96068359 51.58861328 4.92136719 52.67722656 4.88085938 53.79882812 C4.83896484 54.83330078 4.79707031 55.86777344 4.75390625 56.93359375 C4.69891968 58.37109985 4.69891968 58.37109985 4.64282227 59.83764648 C4.4375 62.0625 4.4375 62.0625 3.4375 63.0625 C-0.0625 63.1875 -0.0625 63.1875 -3.5625 63.0625 C-5.32973811 61.29526189 -4.69012833 58.7593116 -4.69189453 56.36523438 C-4.69504669 55.14727173 -4.69819885 53.92930908 -4.70144653 52.67443848 C-4.69965675 51.33504195 -4.6976058 49.99564576 -4.6953125 48.65625 C-4.6959856 47.2924396 -4.69695567 45.92862932 -4.69821167 44.56481934 C-4.69968838 41.70319479 -4.69753497 38.8416014 -4.69287109 35.97998047 C-4.68717381 32.30431386 -4.69045296 28.62872026 -4.69644356 24.95305634 C-4.70004991 22.13587896 -4.69891025 19.31871902 -4.69631577 16.50154114 C-4.6956467 15.14589937 -4.69647421 13.79025604 -4.69879532 12.43461609 C-4.70132301 10.54299956 -4.69679014 8.65137751 -4.69189453 6.75976562 C-4.69109894 5.68134399 -4.69030334 4.60292236 -4.68948364 3.49182129 C-4.486391 -0.39353953 -4.04720469 0.07100359 0 0 Z " fill="#323441" transform="translate(144.5625,35.9375)"/>
<path d="M0 0 C3.59734086 0.58223634 5.29643283 1.90972611 7.86645508 4.4465332 C8.98199516 5.53820549 8.98199516 5.53820549 10.12007141 6.65193176 C10.91189316 7.44355209 11.7037149 8.23517242 12.51953125 9.05078125 C13.74647957 10.26630928 13.74647957 10.26630928 14.99821472 11.50639343 C16.72427699 13.2216506 18.4463768 14.94090302 20.16479492 16.66381836 C22.80577787 19.30577539 25.46735752 21.92569283 28.13085938 24.54492188 C29.80338236 26.2122396 31.47465023 27.88081751 33.14453125 29.55078125 C33.94647415 30.33632889 34.74841705 31.12187653 35.57466125 31.93122864 C36.30259384 32.66846664 37.03052643 33.40570465 37.78051758 34.1652832 C38.4279744 34.81068558 39.07543121 35.45608795 39.74250793 36.12104797 C41 38 41 38 41.02960205 39.88999939 C39.51106064 43.00200105 37.18967642 45.20158506 34.74584961 47.59472656 C33.92633064 48.41490265 33.92633064 48.41490265 33.09025574 49.25164795 C31.28463897 51.05517657 29.46863268 52.84784979 27.65234375 54.640625 C26.39758637 55.88978654 25.14349018 57.13961257 23.89002991 58.39007568 C20.59055519 61.67810078 17.28217036 64.95701707 13.97186279 68.23413086 C10.5949653 71.58033021 7.22655345 74.93504733 3.85742188 78.2890625 C-2.75343144 84.86774957 -9.37372695 91.43684703 -16 98 C-19.84375 96.265625 -19.84375 96.265625 -21.25 93.875 C-22.57050921 88.81304803 -23.12008121 84.93972351 -20.48999023 80.38500977 C-17.45926023 75.9608296 -13.54011752 72.3908457 -9.69921875 68.6796875 C-8.06664258 67.07724532 -6.43449351 65.47436791 -4.80273438 63.87109375 C-2.23542653 61.35979541 0.33559327 58.85261533 2.91430664 56.35302734 C5.40831685 53.93122151 7.88668533 51.49428071 10.36328125 49.0546875 C11.14335037 48.30669891 11.92341949 47.55871033 12.72712708 46.78805542 C13.78899483 45.73643723 13.78899483 45.73643723 14.87231445 44.66357422 C15.50200638 44.05101776 16.1316983 43.4384613 16.7804718 42.80734253 C18.230588 41.07010798 18.230588 41.07010798 17.80386353 38.89772034 C16.69568488 36.28158826 15.08871022 34.8041176 13.03515625 32.84765625 C12.23529297 32.07099609 11.43542969 31.29433594 10.61132812 30.49414062 C8.91610532 28.8768591 7.22079324 27.25967115 5.52539062 25.64257812 C4.72423828 24.86462891 3.92308594 24.08667969 3.09765625 23.28515625 C1.99176147 22.23146851 1.99176147 22.23146851 0.86352539 21.15649414 C-2.85743418 16.85055468 -3.37036402 12.65095916 -3.26953125 7.16015625 C-2.90613195 4.2476952 -1.78085505 2.3002711 0 0 Z " fill="#A7A9B2" transform="translate(77,19)"/>
<path d="M0 0 C4.91259766 4.67333984 4.91259766 4.67333984 5.69921875 7.61328125 C5.69535156 8.50402344 5.69148438 9.39476562 5.6875 10.3125 C5.71199219 11.19550781 5.73648438 12.07851562 5.76171875 12.98828125 C3.79957278 20.74630454 -3.49353649 26.76893813 -9.0234375 32.21875 C-9.76961334 32.96209595 -10.51578918 33.70544189 -11.28457642 34.47131348 C-13.64335284 36.81899262 -16.00902417 39.15957883 -18.375 41.5 C-19.98614006 43.10109676 -21.59682171 44.70265493 -23.20703125 46.3046875 C-27.13273871 50.20847344 -31.06411463 54.10647729 -35 58 C-33.39805307 61.39092768 -31.64398961 63.5669307 -28.9375 66.1875 C-27.74253906 67.35925781 -27.74253906 67.35925781 -26.5234375 68.5546875 C-25.69070312 69.36164063 -24.85796875 70.16859375 -24 71 C-22.34951805 72.59938344 -20.70348736 74.20337647 -19.0625 75.8125 C-18.33160156 76.52019531 -17.60070313 77.22789063 -16.84765625 77.95703125 C-14.02331165 81.07993236 -13.07653268 83.17344707 -12.6875 87.375 C-13.02312832 91.26828854 -14.04102017 93.65340945 -16 97 C-20 97 -20 97 -21.92364502 95.55737305 C-22.92292023 94.54477417 -22.92292023 94.54477417 -23.94238281 93.51171875 C-24.70286926 92.75093018 -25.46335571 91.9901416 -26.24688721 91.20629883 C-27.05744568 90.37509521 -27.86800415 89.5438916 -28.703125 88.6875 C-29.54091492 87.84405029 -30.37870483 87.00060059 -31.24188232 86.1315918 C-33.92076476 83.43028384 -36.58542313 80.71541293 -39.25 78 C-41.06158138 76.16836182 -42.87407028 74.33762074 -44.6875 72.5078125 C-49.13559048 68.0155725 -53.57207434 63.51211257 -58 59 C-56.90679081 55.72037244 -56.2443377 55.13808785 -53.65625 53.02514648 C-47.96599346 48.19264495 -42.76081089 42.88535741 -37.5 37.59765625 C-36.41306197 36.50884896 -35.32589985 35.42026534 -34.23852539 34.33189392 C-31.40216777 31.49175111 -28.56882836 28.6486164 -25.73614502 25.80480957 C-22.83505747 22.89342109 -19.93107287 19.98492533 -17.02734375 17.07617188 C-11.34875182 11.3869133 -5.67335084 5.69448501 0 0 Z " fill="#A6A8B1" transform="translate(59,0)"/>
<path d="M0 0 C19.47 0 38.94 0 59 0 C55.33673257 4.273812 51.82003848 8.30929494 47.88427734 12.27685547 C47.4119014 12.75419632 46.93952545 13.23153717 46.45283508 13.7233429 C44.9165745 15.27400412 43.37662894 16.82092933 41.8359375 18.3671875 C41.30583698 18.90011539 40.77573647 19.43304329 40.2295723 19.98212051 C37.43307869 22.79350391 34.63380183 25.60207893 31.83203125 28.40820312 C28.94242553 31.30332863 26.0622406 34.20764373 23.18407249 37.11413383 C20.9620499 39.35475712 18.73337003 41.58866656 16.50279617 43.82077408 C15.43738201 44.88921293 14.37446715 45.96015012 13.31412888 47.03362656 C11.83537349 48.52941436 10.34746911 50.01547524 8.85693359 51.49951172 C8.01343353 52.34665741 7.16993347 53.1938031 6.3008728 54.06661987 C4 56 4 56 0 57 C0 38.19 0 19.38 0 0 Z " fill="#FDFDFE" transform="translate(0,0)"/>
<path d="M0 0 C6.15980301 2.97478541 9.78436044 7.9198932 12.2265625 14.23046875 C12.72188659 17.47921206 12.59436009 19.9202904 12.2265625 23.23046875 C11.2265625 24.23046875 11.2265625 24.23046875 7.90014648 24.34399414 C6.42430694 24.34383504 4.94846181 24.33814189 3.47265625 24.328125 C2.69720963 24.32671005 1.921763 24.3252951 1.12281799 24.32383728 C-1.36347244 24.3182222 -3.8496741 24.30566721 -6.3359375 24.29296875 C-8.01757683 24.28795569 -9.69921756 24.28339245 -11.38085938 24.27929688 C-15.51175316 24.26824788 -19.64258026 24.2509732 -23.7734375 24.23046875 C-20.90574116 30.21400593 -20.90574116 30.21400593 -15.7734375 34.23046875 C-9.87915454 35.95050862 -5.80122789 35.58882737 -0.3984375 32.66796875 C0.39304687 32.17167969 1.18453125 31.67539063 2 31.1640625 C4.2265625 30.23046875 4.2265625 30.23046875 6.46875 30.9453125 C8.2265625 32.23046875 8.2265625 32.23046875 8.9765625 34.35546875 C9.0590625 34.97421875 9.1415625 35.59296875 9.2265625 36.23046875 C1.9958274 42.58475111 -3.82659274 43.87879601 -13.328125 43.63671875 C-19.41200885 42.91934469 -23.52595739 40.720791 -27.6171875 36.1875 C-33.15729244 29.01410941 -33.65080242 23.31318965 -32.7734375 14.23046875 C-30.4929717 7.87072147 -25.62206895 3.6835379 -20.0390625 0.125 C-14.14807689 -2.20092363 -6.04185221 -1.67640125 0 0 Z " fill="#343643" transform="translate(281.7734375,36.76953125)"/>
<path d="M0 0 C5.03842299 -0.69495489 5.03842299 -0.69495489 8 0 C10.55298075 2.32194176 12.22101686 5.06309885 14 8 C14.78771384 9.16933918 15.5788463 10.33639074 16.375 11.5 C16.91125 12.325 17.4475 13.15 18 14 C19.97622083 11.6437367 21.8046583 9.34560455 23.3203125 6.6640625 C24.74138809 4.20241789 26.04610889 2.06882588 28 0 C31.01076871 -0.80432088 32.85283018 -0.48835394 36 0 C36 4.12652317 35.75091226 4.87363162 33.59375 8.109375 C33.09746094 8.86347656 32.60117188 9.61757813 32.08984375 10.39453125 C31.56519531 11.17183594 31.04054687 11.94914062 30.5 12.75 C29.97535156 13.54277344 29.45070312 14.33554687 28.91015625 15.15234375 C27.61481743 17.10712779 26.31128837 19.05589452 25 21 C28.88165991 27.14404749 32.79528921 33.24750635 36.93359375 39.22265625 C38 41 38 41 38 43 C34.39228471 43.88121647 31.57887463 44.08405746 28 43 C24.53438692 39.33142276 19 33.26810657 19 28 C18.34 28 17.68 28 17 28 C16.73316406 28.71542969 16.46632812 29.43085937 16.19140625 30.16796875 C14.17051462 34.97172754 11.7366989 39.32627917 8 43 C4.83180575 43.82976516 2.18993572 43.65100729 -1 43 C-0.36884357 39.02180188 1.63031916 36.28890966 3.875 33 C4.57367188 31.96875 5.27234375 30.9375 5.9921875 29.875 C8 27 8 27 9.8203125 24.875 C11.22382558 23.09679171 11.22382558 23.09679171 10.71655273 21.11938477 C9.96015242 18.88214078 9.00923751 17.18680916 7.71484375 15.21484375 C7.26689453 14.51939453 6.81894531 13.82394531 6.35742188 13.10742188 C5.40784618 11.65628213 4.45731907 10.20576454 3.50585938 8.75585938 C3.05919922 8.06169922 2.61253906 7.36753906 2.15234375 6.65234375 C1.73976318 6.02320068 1.32718262 5.39405762 0.90209961 4.74584961 C0 3 0 3 0 0 Z " fill="#343643" transform="translate(210,36)"/>
<path d="M0 0 C4.05933549 2.85998637 6.220026 6.13620883 7.1328125 10.9609375 C7.42905315 16.11552487 6.00545332 19.06615011 2.75 22.9375 C-0.17533566 26.11357872 -2.39237866 27.24631097 -6.625 27.5625 C-11.18184463 27.36470708 -13.57386178 25.69814004 -16.83984375 22.640625 C-20.14652778 18.64695675 -20.69152512 15.25898486 -20.56640625 10.1875 C-19.92389175 5.61850797 -17.43330141 2.92358451 -14 0.0625 C-9.05466113 -1.96059317 -4.93707311 -1.61404313 0 0 Z " fill="#F9FAFA" transform="translate(169.25,45.0625)"/>
<path d="M0 0 C0.721875 0.00257812 1.44375 0.00515625 2.1875 0.0078125 C2.909375 0.00523438 3.63125 0.00265625 4.375 0 C6.1875 0.1328125 6.1875 0.1328125 7.1875 1.1328125 C7.28649561 2.93790623 7.31549151 4.74688178 7.31689453 6.5546875 C7.32004669 7.71258789 7.32319885 8.87048828 7.32644653 10.06347656 C7.3244223 11.32385742 7.32239807 12.58423828 7.3203125 13.8828125 C7.32126923 15.16639648 7.32222595 16.44998047 7.32321167 17.77246094 C7.32468831 20.49285074 7.32253519 23.21320775 7.31787109 25.93359375 C7.31217381 29.42765919 7.31545299 32.92164783 7.32144356 36.41571045 C7.32591754 39.73808403 7.32278885 43.06043673 7.3203125 46.3828125 C7.32233673 47.64319336 7.32436096 48.90357422 7.32644653 50.20214844 C7.32329437 51.36004883 7.32014221 52.51794922 7.31689453 53.7109375 C7.31609894 54.73606445 7.31530334 55.76119141 7.31448364 56.81738281 C7.1875 59.1328125 7.1875 59.1328125 6.1875 60.1328125 C4.375 60.265625 4.375 60.265625 2.1875 60.2578125 C1.465625 60.26039062 0.74375 60.26296875 0 60.265625 C-1.8125 60.1328125 -1.8125 60.1328125 -2.8125 59.1328125 C-2.91149561 57.32771877 -2.94049151 55.51874322 -2.94189453 53.7109375 C-2.94504669 52.55303711 -2.94819885 51.39513672 -2.95144653 50.20214844 C-2.9494223 48.94176758 -2.94739807 47.68138672 -2.9453125 46.3828125 C-2.94674759 44.45743652 -2.94674759 44.45743652 -2.94821167 42.49316406 C-2.94968831 39.77277426 -2.94753519 37.05241725 -2.94287109 34.33203125 C-2.93717381 30.83796581 -2.94045299 27.34397717 -2.94644356 23.84991455 C-2.95091754 20.52754097 -2.94778885 17.20518827 -2.9453125 13.8828125 C-2.94733673 12.62243164 -2.94936096 11.36205078 -2.95144653 10.06347656 C-2.94829437 8.90557617 -2.94514221 7.74767578 -2.94189453 6.5546875 C-2.94070114 5.01699707 -2.94070114 5.01699707 -2.93948364 3.44824219 C-2.76147119 0.20234918 -2.76147119 0.20234918 0 0 Z " fill="#383A46" transform="translate(302.8125,18.8671875)"/>
<path d="M0 0 C0.721875 0.00257812 1.44375 0.00515625 2.1875 0.0078125 C2.909375 0.00523438 3.63125 0.00265625 4.375 0 C6.1875 0.1328125 6.1875 0.1328125 7.1875 1.1328125 C7.288637 4.15089313 7.32718909 7.14561763 7.3203125 10.1640625 C7.32126923 11.07031372 7.32222595 11.97656494 7.32321167 12.91027832 C7.32389353 14.83032297 7.32203882 16.75036991 7.31787109 18.67041016 C7.31252292 21.62016954 7.31781588 24.56977664 7.32421875 27.51953125 C7.32355797 29.38020867 7.32227681 31.240886 7.3203125 33.1015625 C7.32233673 33.99008911 7.32436096 34.87861572 7.32644653 35.79406738 C7.30244988 42.01786262 7.30244988 42.01786262 6.1875 43.1328125 C4.375 43.265625 4.375 43.265625 2.1875 43.2578125 C1.465625 43.26039062 0.74375 43.26296875 0 43.265625 C-1.8125 43.1328125 -1.8125 43.1328125 -2.8125 42.1328125 C-2.913637 39.11473187 -2.95218909 36.12000737 -2.9453125 33.1015625 C-2.94626923 32.19531128 -2.94722595 31.28906006 -2.94821167 30.35534668 C-2.94889353 28.43530203 -2.94703882 26.51525509 -2.94287109 24.59521484 C-2.93752292 21.64545546 -2.94281588 18.69584836 -2.94921875 15.74609375 C-2.94855797 13.88541633 -2.94727681 12.024739 -2.9453125 10.1640625 C-2.94733673 9.27553589 -2.94936096 8.38700928 -2.95144653 7.47155762 C-2.92346493 0.21421941 -2.92346493 0.21421941 0 0 Z " fill="#3B3D49" transform="translate(194.8125,35.8671875)"/>
<path d="M0 0 C5.15944644 1.8209811 7.36869946 4.24341826 10 9 C10 9.66 10 10.32 10 11 C1.42 11 -7.16 11 -16 11 C-12.67454148 2.6863537 -8.88352063 -0.59223471 0 0 Z " fill="#F0F0F1" transform="translate(274,43)"/>
<path d="M0 0 C6.93 0 13.86 0 21 0 C19.30528526 3.38942949 18.14123749 5.15462549 15.5625 7.75 C14.96566406 8.36359375 14.36882813 8.9771875 13.75390625 9.609375 C12 11 12 11 9 11 C7.24609375 9.28515625 7.24609375 9.28515625 5.4375 7.0625 C3.08714476 4.07351045 3.08714476 4.07351045 0 2 C0 1.34 0 0.68 0 0 Z " fill="#868891" transform="translate(12,47)"/>
<path d="M0 0 C3.15835107 1.39750048 5.32272825 3.05198234 7.75 5.5 C8.67039062 6.41265625 8.67039062 6.41265625 9.609375 7.34375 C11 9 11 9 11 11 C4.07 11 -2.86 11 -10 11 C-3.25 3.125 -3.25 3.125 0 0 Z " fill="#83858E" transform="translate(96,59)"/>
<path d="M0 0 C2 2 2 2 2.25 5.5 C2 9 2 9 0 11 C-3.13704316 11.333728 -5.16554166 11.52849028 -7.875 9.8125 C-9.40659584 7.34492892 -9.42822025 5.85480169 -9 3 C-6.73157826 -0.65467947 -4.03373275 -0.4291205 0 0 Z " fill="#333643" transform="translate(200,19)"/>
<path d="M0 0 C2.64 0 5.28 0 8 0 C8.33 0.66 8.66 1.32 9 2 C6.69 2 4.38 2 2 2 C1.67 2.66 1.34 3.32 1 4 C0.67 2.68 0.34 1.36 0 0 Z " fill="#464854" transform="translate(210,36)"/>
</svg>
